<?xml version="1.0" standalone="no"?>
<!DOCTYPE svg PUBLIC "-//W3C//DTD SVG 20010904//EN"
 "http://www.w3.org/TR/2001/REC-SVG-20010904/DTD/svg10.dtd">
<svg version="1.0" xmlns="http://www.w3.org/2000/svg"
 width="512.000000pt" height="512.000000pt" viewBox="0 0 512.000000 512.000000"
 preserveAspectRatio="xMidYMid meet">
<metadata>
Created by potrace 1.14, written by Peter Selinger 2001-2017
</metadata>
<g transform="translate(0.000000,512.000000) scale(0.100000,-0.100000)"
fill="#000000" stroke="none">
<path d="M1624 5105 c-109 -24 -220 -84 -302 -165 -89 -88 -124 -155 -235
-458 -42 -111 -87 -222 -101 -247 -34 -57 -96 -106 -171 -135 -33 -12 -69 -27
-80 -31 -11 -5 -93 -36 -182 -68 -89 -33 -188 -73 -220 -90 -155 -79 -276
-236 -317 -410 -28 -122 -10 -287 46 -411 32 -71 72 -158 113 -245 120 -257
123 -298 43 -475 -17 -36 -63 -137 -103 -225 -94 -207 -109 -256 -109 -375 -1
-111 4 -144 33 -224 52 -148 164 -273 306 -343 33 -16 161 -67 285 -113 232
-86 277 -108 321 -156 40 -45 53 -72 145 -318 113 -303 139 -353 239 -450 26
-25 132 -99 145 -101 3 -1 22 -9 43 -18 67 -29 119 -40 214 -43 144 -6 190 10
638 215 97 45 132 53 203 49 69 -4 101 -16 311 -114 51 -24 95 -44 97 -44 2 0
32 -14 66 -30 230 -111 477 -101 660 29 134 94 189 176 273 401 26 69 65 172
87 230 86 225 88 226 404 344 132 49 266 102 299 119 149 74 254 195 312 359
23 63 27 90 27 193 0 111 -7 156 -34 220 -5 11 -52 117 -105 235 -120 266
-125 279 -125 350 0 77 -1 74 203 520 48 106 61 167 61 290 0 93 -5 127 -23
180 -56 161 -168 293 -309 364 -48 24 -192 80 -432 168 -47 17 -104 44 -128
60 -80 55 -94 81 -227 441 -36 97 -75 194 -87 215 -112 194 -301 310 -518 317
-146 6 -189 -7 -475 -138 -216 -98 -230 -104 -265 -115 -109 -34 -140 -26
-500 141 -115 53 -191 84 -240 97 -66 18 -215 21 -286 5z"/>
</g>
</svg>
